<svg version="1.1" viewBox="0.0 0.0 381.06299212598424 400.03937007874015" fill="none" stroke="none" stroke-linecap="square" stroke-miterlimit="10" xmlns:xlink="http://www.w3.org/1999/xlink" xmlns="http://www.w3.org/2000/svg"><clipPath id="p.0"><path d="m0 0l381.063 0l0 400.03937l-381.063 0l0 -400.03937z" clip-rule="nonzero"/></clipPath><g clip-path="url(#p.0)"><path fill="#000000" fill-opacity="0.0" d="m0 0l381.063 0l0 400.03937l-381.063 0z" fill-rule="evenodd"/><path fill="#000000" fill-opacity="0.0" d="m11.514436 200.46982l0 0c0 -104.92541 80.36313 -189.98425 179.49606 -189.98425l0 0c47.605316 0 93.26083 20.01614 126.92288 55.645096c33.66205 35.62896 52.57318 83.952194 52.57318 134.33916l0 0c0 104.925415 -80.36313 189.98425 -179.49606 189.98425l0 0c-99.132935 0 -179.49606 -85.05884 -179.49606 -189.98425z" fill-rule="evenodd"/><path stroke="#0000ff" stroke-width="3.0" stroke-linejoin="round" stroke-linecap="butt" d="m11.514436 200.46982l0 0c0 -104.92541 80.36313 -189.98425 179.49606 -189.98425l0 0c47.605316 0 93.26083 20.01614 126.92288 55.645096c33.66205 35.62896 52.57318 83.952194 52.57318 134.33916l0 0c0 104.925415 -80.36313 189.98425 -179.49606 189.98425l0 0c-99.132935 0 -179.49606 -85.05884 -179.49606 -189.98425z" fill-rule="evenodd"/><path fill="#000000" fill-opacity="0.0" d="m1.6351706 -28.986877l213.19684 0l0 288.59842l-213.19684 0z" fill-rule="evenodd"/><path fill="#ffd966" d="m167.4008 169.09125l25.265625 6.375q-7.953125 31.125 -28.59375 47.46875q-20.625 16.328125 -50.453133 16.328125q-30.859375 0 -50.1875 -12.5625q-19.328125 -12.5625 -29.421875 -36.390625q-10.09375 -23.828125 -10.09375 -51.171875q0 -29.8125 11.390625 -52.015625q11.390625 -22.203125 32.421875 -33.71875q21.03125 -11.53125 46.28125 -11.53125q28.656258 0 48.187508 14.59375q19.53125 14.578125 27.203125 41.015625l-24.859375 5.859375q-6.640625 -20.84375 -19.28125 -30.34375q-12.625 -9.5 -31.765633 -9.5q-22.0 0 -36.78125 10.546875q-14.78125 10.546875 -20.765625 28.328125q-5.984375 17.765625 -5.984375 36.640625q0 24.34375 7.09375 42.515625q7.09375 18.15625 22.0625 27.140625q14.96875 8.984375 32.421875 8.984375q21.218758 0 35.937508 -12.234375q14.71875 -12.25 19.921875 -36.328125z" fill-rule="nonzero"/><path fill="#000000" fill-opacity="0.0" d="m139.14568 94.61942l225.10234 0l0 226.51968l-225.10234 0z" fill-rule="evenodd"/><path fill="#ffd966" d="m167.67693 359.61942l0 -190.875l25.265625 0l0 94.65625l94.781235 -94.65625l34.25 0l-80.07811 77.34375l83.593735 113.53125l-33.34375 0l-67.968735 -96.609375l-31.234375 30.46875l0 66.140625l-25.265625 0z" fill-rule="nonzero"/><path fill="#0000ff" d="m147.25197 123.73491l63.40158 0l0 -14.929138l29.858261 29.858276l-29.858261 29.858261l0 -14.929138l-63.40158 0z" fill-rule="evenodd"/><path fill="#ff0000" d="m162.43307 295.57742l-63.40158 0l0 14.929138l-29.858269 -29.858276l29.858269 -29.858261l0 14.929123l63.40158 0z" fill-rule="evenodd"/></g></svg>